<?xml version="1.0" encoding="utf-8"?>
<!-- Generator: Adobe Illustrator 21.0.0, SVG Export Plug-In . SVG Version: 6.00 Build 0)  -->
<svg version="1.1" id="Layer_1" xmlns="http://www.w3.org/2000/svg" xmlns:xlink="http://www.w3.org/1999/xlink" x="0px" y="0px"
	 viewBox="0 0 620 240" style="enable-background:new 0 0 620 240;" xml:space="preserve">
<style type="text/css">
	.st0{clip-path:url(#SVGID_2_);fill:#FED500;}
	.st1{opacity:0.1;clip-path:url(#SVGID_2_);fill:url(#);}
	.st2{clip-path:url(#SVGID_2_);fill:#95D13C;}
	.st3{clip-path:url(#SVGID_2_);fill:#E62325;}
	.st4{clip-path:url(#SVGID_2_);fill:#5392FF;}
	.st5{clip-path:url(#SVGID_2_);}
	.st6{opacity:0.1;clip-path:url(#SVGID_4_);}
	.st7{fill:none;stroke:#285BB2;stroke-width:8.893;stroke-linecap:round;stroke-linejoin:round;}
	
		.st8{fill:none;stroke:#285BB2;stroke-width:8.893;stroke-linecap:round;stroke-linejoin:round;stroke-dasharray:0,44.4652,124.5026,44.4652;}
	.st9{opacity:0.1;clip-path:url(#SVGID_6_);}
	.st10{fill:#5392FF;}
	.st11{opacity:0.1;clip-path:url(#SVGID_8_);}
	.st12{fill:none;stroke:#285BB2;stroke-width:15.1785;stroke-linecap:round;stroke-linejoin:round;}
	
		.st13{fill:none;stroke:#285BB2;stroke-width:15.1785;stroke-linecap:round;stroke-linejoin:round;stroke-dasharray:0,75.8926,212.4993,75.8926;}
	.st14{fill:#FED500;}
	.st15{fill:none;stroke:#000000;stroke-width:4;stroke-miterlimit:10;}
	.st16{fill:none;stroke:#FFFFFF;stroke-width:4;stroke-linecap:round;stroke-miterlimit:10;}
	.st17{fill:#FFFFFF;}
	.st18{fill:none;stroke:#FFFFFF;stroke-width:4;stroke-miterlimit:10;}
	.st19{fill:#B19812;}
	.st20{fill:url(#SVGID_9_);}
	.st21{fill:url(#SVGID_10_);}
	.st22{fill:none;stroke:#FFFFFF;stroke-width:3.2018;stroke-miterlimit:10;}
	.st23{fill:none;stroke:#95D13C;stroke-width:3.2018;stroke-miterlimit:10;}
	.st24{fill:none;stroke:#5392FF;stroke-width:3.2018;stroke-miterlimit:10;}
	.st25{fill:none;stroke:#FED500;stroke-width:3.2018;stroke-miterlimit:10;}
	.st26{opacity:0.1;fill:none;stroke:url(#SVGID_11_);stroke-width:3.2018;stroke-miterlimit:10;}
	.st27{fill:none;stroke:#FFB000;stroke-width:3.2018;stroke-linecap:round;stroke-linejoin:round;}
	.st28{fill:none;stroke:#FFB000;stroke-width:3.2018;stroke-linecap:round;stroke-linejoin:round;stroke-dasharray:9.3384,9.3384;}
	
		.st29{fill:none;stroke:#FFB000;stroke-width:3.2018;stroke-linecap:round;stroke-linejoin:round;stroke-dasharray:0,9.3384,9.3384,9.3384;}
	
		.st30{fill:none;stroke:#FFB000;stroke-width:3.2018;stroke-linecap:round;stroke-linejoin:round;stroke-dasharray:11.9224,11.9224;}
	
		.st31{fill:none;stroke:#FFB000;stroke-width:3.2018;stroke-linecap:round;stroke-linejoin:round;stroke-dasharray:0,11.9224,11.9224,11.9224;}
	
		.st32{fill:none;stroke:#FFB000;stroke-width:3.2018;stroke-linecap:round;stroke-linejoin:round;stroke-dasharray:22.8585,14.2865;}
	
		.st33{fill:none;stroke:#FFB000;stroke-width:3.2018;stroke-linecap:round;stroke-linejoin:round;stroke-dasharray:0,11.4292,22.8585,14.2865;}
	.st34{opacity:0.1;fill:none;stroke:#5392FF;stroke-width:3.2018;stroke-miterlimit:10;}
	.st35{fill:none;stroke:#5392FF;stroke-width:3.2018;stroke-linecap:round;stroke-linejoin:round;}
	.st36{fill:none;stroke:#5392FF;stroke-width:3.2018;stroke-linecap:round;stroke-linejoin:round;stroke-dasharray:9.3384,9.3384;}
	
		.st37{fill:none;stroke:#5392FF;stroke-width:3.2018;stroke-linecap:round;stroke-linejoin:round;stroke-dasharray:0,9.3384,9.3384,9.3384;}
	
		.st38{fill:none;stroke:#5392FF;stroke-width:3.2018;stroke-linecap:round;stroke-linejoin:round;stroke-dasharray:11.9224,11.9224;}
	
		.st39{fill:none;stroke:#5392FF;stroke-width:3.2018;stroke-linecap:round;stroke-linejoin:round;stroke-dasharray:0,11.9224,11.9224,11.9224;}
	
		.st40{fill:none;stroke:#5392FF;stroke-width:3.2018;stroke-linecap:round;stroke-linejoin:round;stroke-dasharray:22.8585,14.2865;}
	
		.st41{fill:none;stroke:#5392FF;stroke-width:3.2018;stroke-linecap:round;stroke-linejoin:round;stroke-dasharray:0,11.4292,22.8585,14.2865;}
	
		.st42{fill:none;stroke:#B19812;stroke-width:11.3877;stroke-linecap:round;stroke-linejoin:round;stroke-miterlimit:10;stroke-dasharray:0,28.541,28.541,28.541;}
	
		.st43{fill:none;stroke:#FFFFFF;stroke-width:7.6377;stroke-linecap:round;stroke-linejoin:round;stroke-miterlimit:10;stroke-dasharray:0,19.1425,19.1425,19.1425;}
	.st44{fill:none;stroke:#0A0A0A;stroke-width:4.175;stroke-linecap:round;stroke-linejoin:round;}
	.st45{fill:#FFFFFF;stroke:#0A0A0A;stroke-width:4.175;}
	.st46{fill:none;stroke:#0A0A0A;stroke-width:4.175;stroke-linecap:round;}
	.st47{fill:#B19812;stroke:#0A0A0A;stroke-width:4.175;stroke-linecap:round;stroke-linejoin:round;}
	.st48{fill:#95D13C;}
	.st49{opacity:0.1;fill:url(#);}
	.st50{fill:none;stroke:#FFFFFF;stroke-width:2.0875;stroke-miterlimit:10;}
	.st51{fill:none;stroke:url(#SVGID_12_);stroke-width:2.0875;stroke-miterlimit:10;}
	.st52{fill:none;stroke:url(#SVGID_13_);stroke-width:2.0875;stroke-miterlimit:10;}
	.st53{opacity:0.3;fill:url(#);}
	.st54{fill:none;stroke:url(#SVGID_14_);stroke-width:2.0875;stroke-miterlimit:10;}
	.st55{fill:none;stroke:url(#SVGID_15_);stroke-width:2.0875;stroke-miterlimit:10;}
	.st56{opacity:0.2;clip-path:url(#SVGID_17_);}
	.st57{fill:none;stroke:#285BB2;stroke-width:8.759;stroke-linecap:round;stroke-linejoin:round;}
	
		.st58{fill:none;stroke:#285BB2;stroke-width:8.759;stroke-linecap:round;stroke-linejoin:round;stroke-dasharray:0,43.7948,122.6255,43.7948;}
	
		.st59{fill:none;stroke:url(#SVGID_18_);stroke-width:11.3877;stroke-linecap:round;stroke-linejoin:round;stroke-miterlimit:10;stroke-dasharray:0,28.541,28.541,28.541;}
	
		.st60{fill:none;stroke:url(#SVGID_19_);stroke-width:11.3877;stroke-linecap:round;stroke-linejoin:round;stroke-miterlimit:10;stroke-dasharray:0,28.541,28.541,28.541;}
	
		.st61{fill:none;stroke:url(#SVGID_20_);stroke-width:11.3877;stroke-linecap:round;stroke-linejoin:round;stroke-miterlimit:10;stroke-dasharray:0,28.541,28.541,28.541;}
	
		.st62{fill:none;stroke:#CFD8DC;stroke-width:7.6377;stroke-linecap:round;stroke-linejoin:round;stroke-miterlimit:10;stroke-dasharray:0,19.1425,19.1425,19.1425;}
	.st63{fill:url(#SVGID_21_);}
	.st64{fill:#E62325;}
	.st65{fill:#323232;}
	.st66{fill:#BCBCBC;}
	.st67{fill:url(#SVGID_22_);}
	.st68{fill:none;stroke:url(#SVGID_23_);stroke-width:0.5796;stroke-miterlimit:10;}
	.st69{fill:none;stroke:url(#SVGID_24_);stroke-width:0.5796;stroke-miterlimit:10;}
	.st70{fill:url(#SVGID_25_);}
	.st71{fill:url(#SVGID_26_);}
	.st72{fill:url(#SVGID_27_);}
	.st73{fill:url(#SVGID_28_);}
	.st74{fill:url(#SVGID_29_);}
	.st75{fill:url(#SVGID_30_);}
	.st76{fill:#992728;}
	.st77{fill:#2D80B3;}
	.st78{fill:#285BB2;}
	.st79{fill:#FF816C;}
	.st80{fill:#ABCC57;}
	.st81{fill:#598419;}
	.st82{fill:#5478D9;}
	.st83{fill:#9E4F3D;}
	.st84{fill:#1F6B99;}
	.st85{fill:#93B243;}
	.st86{fill:#843D2D;}
	.st87{fill:#CC9928;}
	.st88{fill:#19FEFE;}
	.st89{fill:#CB149A;}
	.st90{fill:#B10985;}
	.st91{fill:url(#SVGID_31_);}
	.st92{fill:url(#SVGID_32_);}
	.st93{fill:url(#SVGID_33_);}
	.st94{fill:url(#SVGID_34_);}
	.st95{fill:url(#SVGID_35_);}
	.st96{fill:url(#SVGID_36_);}
	.st97{fill:url(#SVGID_37_);}
	.st98{fill:url(#SVGID_38_);}
	.st99{fill:url(#SVGID_39_);}
	.st100{fill:url(#SVGID_40_);}
	.st101{fill:url(#SVGID_41_);}
	.st102{fill:url(#SVGID_42_);}
	.st103{fill:url(#SVGID_43_);}
	.st104{fill:url(#SVGID_44_);}
	.st105{fill:url(#SVGID_45_);}
	.st106{fill:url(#SVGID_46_);}
	.st107{fill:url(#SVGID_47_);}
	.st108{fill:url(#SVGID_48_);}
	.st109{fill:none;stroke:#607D8B;stroke-width:7.0638;stroke-linecap:round;stroke-linejoin:round;stroke-miterlimit:10;}
	.st110{fill:none;stroke:#FFFFFF;stroke-width:7.0638;stroke-linecap:round;stroke-linejoin:round;stroke-miterlimit:10;}
	.st111{stroke:#000000;stroke-width:3.6266;stroke-linejoin:round;stroke-miterlimit:10;}
	.st112{fill:none;stroke:#000000;stroke-width:3.5229;stroke-linecap:round;stroke-miterlimit:10;}
	.st113{fill:none;stroke:#000000;stroke-width:3.5229;stroke-linecap:round;stroke-linejoin:round;stroke-miterlimit:10;}
	.st114{fill:none;stroke:#000000;stroke-width:3.6238;stroke-linecap:round;stroke-miterlimit:10;}
	
		.st115{fill:none;stroke:#000000;stroke-width:3.5229;stroke-linecap:round;stroke-linejoin:round;stroke-dasharray:0,13.3535,53.414,13.3535;}
	.st116{fill:none;stroke:#000000;stroke-width:12.0165;stroke-linecap:round;stroke-linejoin:round;stroke-miterlimit:10;}
	
		.st117{fill:none;stroke:#000000;stroke-width:10.0137;stroke-linecap:round;stroke-linejoin:round;stroke-dasharray:0,56.8494,90.959,56.8494;}
	.st118{fill:none;stroke:#000000;stroke-width:3.5229;stroke-linecap:round;stroke-linejoin:round;}
	
		.st119{fill:none;stroke:#000000;stroke-width:3.5229;stroke-linecap:round;stroke-linejoin:round;stroke-dasharray:51.2222,12.8056;}
	
		.st120{fill:none;stroke:#000000;stroke-width:3.5229;stroke-linecap:round;stroke-linejoin:round;stroke-dasharray:0,12.8056,51.2222,12.8056;}
	
		.st121{fill:none;stroke:#000000;stroke-width:3.5229;stroke-linecap:round;stroke-linejoin:round;stroke-dasharray:51.0223,12.7556;}
	
		.st122{fill:none;stroke:#000000;stroke-width:3.5229;stroke-linecap:round;stroke-linejoin:round;stroke-dasharray:0,12.7556,51.0223,12.7556;}
	
		.st123{fill:none;stroke:#000000;stroke-width:3.5229;stroke-linecap:round;stroke-linejoin:round;stroke-dasharray:60.6165,15.1541;}
	
		.st124{fill:none;stroke:#000000;stroke-width:3.5229;stroke-linecap:round;stroke-linejoin:round;stroke-dasharray:0,15.1541,60.6165,15.1541;}
	.st125{clip-path:url(#SVGID_50_);}
	
		.st126{fill:none;stroke:#000000;stroke-width:3.5229;stroke-linecap:round;stroke-linejoin:round;stroke-dasharray:50.1111,12.5278;}
	
		.st127{fill:none;stroke:#000000;stroke-width:3.5229;stroke-linecap:round;stroke-linejoin:round;stroke-dasharray:0,12.5278,50.1111,12.5278;}
	
		.st128{fill:none;stroke:#000000;stroke-width:3.5229;stroke-linecap:round;stroke-linejoin:round;stroke-dasharray:56.9032,14.2258;}
	
		.st129{fill:none;stroke:#000000;stroke-width:3.5229;stroke-linecap:round;stroke-linejoin:round;stroke-dasharray:0,14.2258,56.9032,14.2258;}
	
		.st130{fill:none;stroke:#000000;stroke-width:3.5229;stroke-linecap:round;stroke-linejoin:round;stroke-dasharray:41.6667,10.4167;}
	
		.st131{fill:none;stroke:#000000;stroke-width:3.5229;stroke-linecap:round;stroke-linejoin:round;stroke-dasharray:0,10.4167,41.6667,10.4167;}
	.st132{clip-path:url(#SVGID_52_);fill:#285BB2;}
	.st133{clip-path:url(#SVGID_52_);}
	.st134{fill:none;stroke:#5392FF;stroke-width:13.5479;stroke-linecap:round;stroke-linejoin:round;}
	
		.st135{fill:none;stroke:#5392FF;stroke-width:13.5479;stroke-linecap:round;stroke-linejoin:round;stroke-dasharray:0,67.7397,189.6711,67.7397;}
	.st136{fill:none;stroke:url(#SVGID_53_);stroke-width:2.0875;stroke-miterlimit:10;}
	.st137{fill:none;stroke:url(#SVGID_54_);stroke-width:2.0875;stroke-miterlimit:10;}
	.st138{opacity:0.5;}
	.st139{clip-path:url(#SVGID_56_);}
	.st140{fill:none;stroke:#B19812;stroke-width:13.7616;stroke-linecap:round;stroke-linejoin:round;}
	
		.st141{fill:none;stroke:#B19812;stroke-width:13.7616;stroke-linecap:round;stroke-linejoin:round;stroke-dasharray:0,68.8079,192.6621,68.8079;}
	.st142{fill:none;stroke:url(#SVGID_57_);stroke-width:2.0875;stroke-miterlimit:10;}
	.st143{fill:none;stroke:url(#SVGID_58_);stroke-width:2.0875;stroke-miterlimit:10;}
	.st144{fill:none;stroke:url(#SVGID_59_);stroke-width:2.0875;stroke-miterlimit:10;}
	.st145{fill:none;stroke:url(#SVGID_60_);stroke-width:2.0875;stroke-miterlimit:10;}
	.st146{fill:url(#);}
	.st147{fill:url(#SVGID_61_);}
	.st148{fill:none;stroke:#B19812;stroke-width:20;stroke-linecap:round;stroke-linejoin:round;}
	.st149{fill:none;stroke:#B19812;stroke-width:20;stroke-linecap:round;stroke-linejoin:round;stroke-dasharray:185.4444,66.2301;}
	
		.st150{fill:none;stroke:#B19812;stroke-width:20;stroke-linecap:round;stroke-linejoin:round;stroke-dasharray:0,66.2301,185.4444,66.2301;}
	.st151{fill:none;stroke:#B19812;stroke-width:20;stroke-linecap:round;stroke-linejoin:round;stroke-dasharray:185.4444,66.2302;}
	
		.st152{fill:none;stroke:#B19812;stroke-width:20;stroke-linecap:round;stroke-linejoin:round;stroke-dasharray:0,66.2302,185.4444,66.2302;}
	.st153{fill:none;stroke:#B19812;stroke-width:20;stroke-linecap:round;stroke-linejoin:round;stroke-dasharray:185.4445,66.2302;}
	
		.st154{fill:none;stroke:#B19812;stroke-width:20;stroke-linecap:round;stroke-linejoin:round;stroke-dasharray:0,66.2302,185.4445,66.2302;}
	.st155{clip-path:url(#SVGID_63_);}
	.st156{fill:none;stroke:#B19812;stroke-width:13.8591;stroke-linecap:round;stroke-linejoin:round;}
	
		.st157{fill:none;stroke:#B19812;stroke-width:13.8591;stroke-linecap:round;stroke-linejoin:round;stroke-dasharray:0,69.2955,194.0274,69.2955;}
	.st158{clip-path:url(#SVGID_65_);}
	.st159{fill:#90A4AE;}
	.st160{fill:url(#SVGID_66_);}
	.st161{fill:url(#SVGID_67_);}
	.st162{fill:url(#SVGID_68_);}
	.st163{fill:url(#SVGID_69_);}
	.st164{fill:url(#SVGID_70_);}
	.st165{fill:url(#SVGID_71_);}
	.st166{fill:#3E2723;}
	.st167{clip-path:url(#SVGID_73_);}
	.st168{opacity:0;}
	.st169{clip-path:url(#SVGID_75_);}
	.st170{fill:#FFFFFF;fill-opacity:4.300000e-02;}
	.st171{fill:#FFFFFF;fill-opacity:3.500000e-02;}
	.st172{fill:#FFFFFF;fill-opacity:4.700000e-02;}
	.st173{fill:#FFFFFF;fill-opacity:5.500000e-02;}
	.st174{fill:#FFFFFF;fill-opacity:3.900000e-02;}
	.st175{fill:#FFFFFF;fill-opacity:5.100000e-02;}
	.st176{fill:#FFFFFF;fill-opacity:2.400000e-02;}
	.st177{fill:#FFFFFF;fill-opacity:7.100000e-02;}
	.st178{fill:#FFFFFF;fill-opacity:8.600000e-02;}
	.st179{fill:#FFFFFF;fill-opacity:2.000000e-02;}
	.st180{fill:#FFFFFF;fill-opacity:3.100000e-02;}
	.st181{fill:#FFFFFF;fill-opacity:6.300000e-02;}
	.st182{fill:#FFFFFF;fill-opacity:6.700000e-02;}
	.st183{fill:#FFFFFF;fill-opacity:7.500000e-02;}
	.st184{fill:#FFFFFF;fill-opacity:7.800000e-02;}
	.st185{fill:#FFFFFF;fill-opacity:5.900000e-02;}
	.st186{fill:#FFFFFF;fill-opacity:9.000000e-02;}
	.st187{fill:#FFFFFF;fill-opacity:0.118;}
	.st188{fill:#FFFFFF;fill-opacity:8.200000e-02;}
	.st189{fill:#FFFFFF;fill-opacity:0.102;}
	.st190{fill:#FFFFFF;fill-opacity:0.114;}
	.st191{fill:#FFFFFF;fill-opacity:0.165;}
	.st192{fill:#FFFFFF;fill-opacity:0.11;}
	.st193{fill:#FFFFFF;fill-opacity:0.122;}
	.st194{fill:#FFFFFF;fill-opacity:0.141;}
	.st195{fill:#FFFFFF;fill-opacity:0.169;}
	.st196{fill:#FFFFFF;fill-opacity:9.800000e-02;}
	.st197{fill:#FFFFFF;fill-opacity:0.133;}
	.st198{fill:#FFFFFF;fill-opacity:0.125;}
	.st199{fill:#FFFFFF;fill-opacity:0.106;}
	.st200{fill:#FFFFFF;fill-opacity:2.700000e-02;}
	.st201{fill:#FFFFFF;fill-opacity:0.204;}
	.st202{fill:#FFFFFF;fill-opacity:0.149;}
	.st203{fill:#FFFFFF;fill-opacity:0.161;}
	.st204{fill:#FFFFFF;fill-opacity:9.400000e-02;}
	.st205{fill:#FFFFFF;fill-opacity:0.145;}
	.st206{fill:#FFFFFF;fill-opacity:0.137;}
	.st207{fill:#FFFFFF;fill-opacity:0.192;}
	.st208{fill:#FFFFFF;fill-opacity:0.184;}
	.st209{fill:#FFFFFF;fill-opacity:0.18;}
	.st210{fill:#FFFFFF;fill-opacity:0.22;}
	.st211{fill:#FFFFFF;fill-opacity:0.129;}
	.st212{fill:#FFFFFF;fill-opacity:0.196;}
	.st213{fill:#FFFFFF;fill-opacity:0.176;}
	.st214{fill:#FFFFFF;fill-opacity:0.157;}
	.st215{fill:#FFFFFF;fill-opacity:0.173;}
	.st216{fill:#FFFFFF;fill-opacity:0.153;}
	.st217{clip-path:url(#SVGID_77_);}
	.st218{fill:#FFFFFF;fill-opacity:0.188;}
	.st219{clip-path:url(#SVGID_79_);}
	.st220{fill:#FFFFFF;fill-opacity:0.212;}
	.st221{fill:#FFFFFF;fill-opacity:0.224;}
	.st222{fill:#FFFFFF;fill-opacity:0.251;}
	.st223{fill:#FFFFFF;fill-opacity:0.2;}
	.st224{fill:#FFFFFF;fill-opacity:0.259;}
	.st225{fill:#FFFFFF;fill-opacity:0.231;}
	.st226{fill:#FFFFFF;fill-opacity:0.286;}
	.st227{fill:#FFFFFF;fill-opacity:0.255;}
	.st228{fill:#FFFFFF;fill-opacity:0.216;}
	.st229{fill:#FFFFFF;fill-opacity:0.275;}
	.st230{fill:#FFFFFF;fill-opacity:0.271;}
	.st231{fill:#FFFFFF;fill-opacity:0.29;}
	.st232{fill:#FFFFFF;fill-opacity:0.314;}
	.st233{fill:#FFFFFF;fill-opacity:0.337;}
	.st234{fill:#FFFFFF;fill-opacity:0.302;}
	.st235{fill:#FFFFFF;fill-opacity:0.376;}
	.st236{fill:#FFFFFF;fill-opacity:0.278;}
	.st237{fill:#FFFFFF;fill-opacity:0.318;}
	.st238{fill:#FFFFFF;fill-opacity:0.247;}
	.st239{fill:#FFFFFF;fill-opacity:0.235;}
	.st240{fill:#FFFFFF;fill-opacity:0.298;}
	.st241{fill:#FFFFFF;fill-opacity:0.325;}
	.st242{fill:#FFFFFF;fill-opacity:0.333;}
	.st243{fill:#FFFFFF;fill-opacity:0.263;}
	.st244{fill:#FFFFFF;fill-opacity:0.322;}
	.st245{fill:#FFFFFF;fill-opacity:0.282;}
	.st246{fill:#FFFFFF;fill-opacity:0.349;}
	.st247{fill:#FFFFFF;fill-opacity:0.369;}
	.st248{fill:#FFFFFF;fill-opacity:0.208;}
	.st249{fill:#FFFFFF;fill-opacity:0.239;}
	.st250{clip-path:url(#SVGID_81_);}
	.st251{fill:#FFFFFF;fill-opacity:0.294;}
	.st252{fill:#FFFFFF;fill-opacity:0.227;}
	.st253{fill:#FFFFFF;fill-opacity:0.4;}
	.st254{fill:#FFFFFF;fill-opacity:0.243;}
	.st255{fill:#FFFFFF;fill-opacity:0.404;}
	.st256{fill:#FFFFFF;fill-opacity:0.537;}
	.st257{fill:#FFFFFF;fill-opacity:0.267;}
	.st258{fill:#FFFFFF;fill-opacity:0.31;}
	.st259{clip-path:url(#SVGID_83_);}
	.st260{fill:#FFFFFF;fill-opacity:0.306;}
	.st261{fill:#FFFFFF;fill-opacity:0.463;}
	.st262{fill:#FFFFFF;fill-opacity:0.741;}
	.st263{fill:#FFFFFF;fill-opacity:0.412;}
	.st264{fill:#FFFFFF;fill-opacity:0.345;}
	.st265{fill:#FFFFFF;fill-opacity:0.51;}
	.st266{fill:#FFFFFF;fill-opacity:0.42;}
	.st267{fill:#FFFFFF;fill-opacity:0.408;}
	.st268{fill:#FFFFFF;fill-opacity:0.416;}
	.st269{fill:#FFFFFF;fill-opacity:0.388;}
	.st270{fill:#FFFFFF;fill-opacity:0.514;}
	.st271{fill:#FFFFFF;fill-opacity:0.522;}
	.st272{fill:#FFFFFF;fill-opacity:0.596;}
	.st273{opacity:0.1;}
	.st274{fill:none;stroke:#FFFFFF;stroke-width:1.3204;stroke-miterlimit:10;}
	.st275{fill:none;stroke:#4CAF50;stroke-width:1.3204;stroke-miterlimit:10;}
	.st276{fill:none;stroke:#C32032;stroke-width:1.3204;stroke-miterlimit:10;}
	.st277{opacity:0.25;}
	.st278{fill:#F8F3CE;}
	.st279{opacity:0.3;fill:#0A171C;}
	.st280{fill:#B0BEC5;}
	.st281{fill:#162126;}
	.st282{fill:#C32032;}
	.st283{fill:#4CAF50;}
	.st284{fill:none;stroke:#000000;stroke-width:0.997;stroke-miterlimit:10;}
	.st285{fill:none;}
	.st286{fill:#D1C492;}
	.st287{fill:none;stroke:url(#SVGID_84_);stroke-width:4.3672;stroke-miterlimit:10;}
	.st288{fill:none;stroke:url(#SVGID_85_);stroke-width:2.2308;stroke-miterlimit:10;}
	.st289{fill:none;stroke:url(#SVGID_86_);stroke-width:4.0246;stroke-miterlimit:10;}
	.st290{fill:none;stroke:url(#SVGID_87_);stroke-width:2.1287;stroke-miterlimit:10;}
	.st291{fill:none;stroke:url(#SVGID_88_);stroke-width:1.1249;stroke-miterlimit:10;}
	.st292{fill:none;stroke:url(#SVGID_89_);stroke-width:3.0529;stroke-miterlimit:10;}
	.st293{fill:none;stroke:#000000;stroke-width:1.4374;stroke-miterlimit:10;}
	.st294{fill:url(#SVGID_90_);}
	.st295{fill:none;stroke:url(#SVGID_93_);stroke-width:1.4374;stroke-miterlimit:10;}
	.st296{fill:none;stroke:url(#SVGID_94_);stroke-width:1.4374;stroke-miterlimit:10;}
	.st297{fill-rule:evenodd;clip-rule:evenodd;fill:#FFFFFF;}
	
		.st298{fill:none;stroke:url(#SVGID_97_);stroke-width:5.4646;stroke-linecap:round;stroke-linejoin:round;stroke-miterlimit:10;stroke-dasharray:0,15.6132,15.6132,15.6132;}
	
		.st299{fill:none;stroke:url(#SVGID_98_);stroke-width:5.4646;stroke-linecap:round;stroke-linejoin:round;stroke-miterlimit:10;stroke-dasharray:0,15.6132,15.6132,15.6132;}
	.st300{fill:none;stroke:url(#SVGID_99_);stroke-width:2.0875;stroke-miterlimit:10;}
	.st301{fill:none;stroke:url(#SVGID_100_);stroke-width:2.0875;stroke-miterlimit:10;}
	.st302{fill:url(#SVGID_101_);}
	.st303{fill:url(#SVGID_102_);}
	.st304{fill:none;stroke:url(#SVGID_103_);stroke-width:5.1872;stroke-miterlimit:10;}
	.st305{fill:none;stroke:url(#SVGID_104_);stroke-width:2.6497;stroke-miterlimit:10;}
	.st306{fill:none;stroke:url(#SVGID_105_);stroke-width:4.7804;stroke-miterlimit:10;}
	.st307{fill:none;stroke:url(#SVGID_106_);stroke-width:2.5284;stroke-miterlimit:10;}
	.st308{fill:none;stroke:url(#SVGID_107_);stroke-width:1.3361;stroke-miterlimit:10;}
	.st309{fill:none;stroke:url(#SVGID_108_);stroke-width:3.6262;stroke-miterlimit:10;}
	.st310{fill:none;stroke:#FF816C;stroke-width:4;stroke-miterlimit:10;}
	.st311{opacity:0.3;}
	.st312{fill:none;stroke:#FFFFFF;stroke-width:4.059;stroke-miterlimit:10;}
	.st313{fill:none;stroke:#FFFFFF;stroke-width:4.059;stroke-linecap:round;stroke-linejoin:round;}
	
		.st314{fill:none;stroke:#FFFFFF;stroke-width:4.059;stroke-linecap:round;stroke-linejoin:round;stroke-dasharray:11.8389,11.8389;}
	
		.st315{fill:none;stroke:#FFFFFF;stroke-width:4.059;stroke-linecap:round;stroke-linejoin:round;stroke-dasharray:0,11.8389,11.8389,11.8389;}
	.st316{opacity:0.9;}
	.st317{fill:#263238;}
	.st318{clip-path:url(#SVGID_112_);}
	.st319{fill:none;stroke:url(#SVGID_113_);stroke-width:1.9363;stroke-miterlimit:10;}
	.st320{fill:none;stroke:url(#SVGID_114_);stroke-width:0.9891;stroke-miterlimit:10;}
	.st321{fill:none;stroke:url(#SVGID_115_);stroke-width:1.7845;stroke-miterlimit:10;}
	.st322{fill:none;stroke:url(#SVGID_116_);stroke-width:0.9438;stroke-miterlimit:10;}
	.st323{fill:none;stroke:url(#SVGID_117_);stroke-width:0.4988;stroke-miterlimit:10;}
	.st324{fill:none;stroke:url(#SVGID_118_);stroke-width:1.3536;stroke-miterlimit:10;}
	.st325{opacity:0.1;clip-path:url(#SVGID_122_);}
	.st326{fill:none;stroke:#285BB2;stroke-width:4.497;stroke-linecap:round;stroke-linejoin:round;}
	
		.st327{fill:none;stroke:#285BB2;stroke-width:4.497;stroke-linecap:round;stroke-linejoin:round;stroke-dasharray:0,22.4849,62.9576,22.4849;}
	.st328{fill:url(#SVGID_125_);}
	.st329{fill:url(#SVGID_126_);}
	.st330{fill:url(#SVGID_127_);}
	.st331{fill:url(#SVGID_128_);}
	.st332{fill:url(#SVGID_129_);}
	.st333{fill:url(#SVGID_130_);}
	.st334{fill:url(#SVGID_131_);}
	.st335{fill:url(#SVGID_132_);}
	.st336{fill:url(#SVGID_133_);}
	.st337{fill:url(#SVGID_134_);}
	.st338{fill:url(#SVGID_135_);}
	.st339{fill:url(#SVGID_136_);}
	.st340{fill:url(#SVGID_137_);}
	.st341{fill:url(#SVGID_138_);}
	.st342{fill:url(#SVGID_139_);}
	.st343{fill:url(#SVGID_140_);}
	.st344{fill:url(#SVGID_141_);}
	.st345{fill:url(#SVGID_142_);}
	.st346{fill:url(#SVGID_143_);}
</style>
<g>
	<g>
		<g>
			<path class="st17" d="M197.7,146.4c-0.4,0-1.3-0.4-1.3-1.4l0,0c0-0.8,0.7-1.3,1.3-1.3l4.4,0c0.4,0,0.8-0.4,0.8-0.8v-63
				c0-0.4-0.4-0.8-0.8-0.8l-3.7,0c-0.8,0-1.4-0.6-1.4-1.2l0,0c0-1.1,0.7-1.3,1.5-1.3l12,0.1c0.4,0,1.2,0,1.6,0c0,0,3.7,0,5.9-0.2
				c2.2-0.2,5.7-0.8,5.7-0.8c0.4-0.1,0.7-0.1,1-0.1c0.7,0,1.5,0.4,1.5,1.7v66.1c0,0.4,0.4,0.8,0.8,0.8l3.8,0.1
				c0.7,0,1.3,0.6,1.3,1.4l0,0c0,0.8-0.7,1.3-1.3,1.3L197.7,146.4z"/>
			<path class="st17" d="M293.3,138.5c0.3,0.2,0.7,0.9,0.2,1.7c-2.2,3.5-5.2,6.2-9.1,8c-4.3,2-9.5,2.7-15.6,2.4
				c-8.6-0.5-15.4-3.2-20.6-8.1c-5.1-4.9-7.7-11.1-7.7-18.8c0-7.7,2.6-13.8,7.8-18.1c5.2-4.4,12.2-6.3,20.9-5.8
				c8.2,0.5,14.4,2.3,18.8,5.4c4.4,3.1,6.6,7.2,6.6,12.4c0,3.4-1,6.1-3,7.9c-2,1.8-4.8,2.6-8.2,2.4c-3.2-0.2-5.7-1.3-7.6-3.2
				c-1.9-1.9-2.8-4.4-2.8-7.5c0-1.9,0.3-3.5,1-4.7c0.7-1.2,1.7-2.2,3.2-3c0.4-0.2,0.9-0.5,1.5-0.8c1.6-0.8,2.5-1.7,2.5-2.7
				c0-0.8-0.5-1.5-1.4-2.1c-0.9-0.6-2.2-0.9-3.7-1c-3.6-0.2-6.3,1.3-7.9,4.5c-1.6,3.2-2.5,8.6-2.5,16c0,8.8,0.9,14.8,2.7,18.2
				c1.8,3.3,4.8,5.1,9.1,5.4c2.6,0.2,5.1-0.5,7.6-2c2.2-1.4,4.4-3.4,6.5-6.1C292.1,138,293,138.3,293.3,138.5z"/>
			<path class="st17" d="M303.3,149.8c0-1,1-1.4,1.5-1.4c1.1,0.1,2.1,0.2,3.2,0.3c0.4,0,1.1-0.3,1.1-1.2c0-21.1,0-42.2,0-63.4
				c-1.5-0.1-3.1-0.2-4.6-0.4c-0.4,0-1.1-0.4-1.1-1.3c0-0.8,0.7-1.3,1.3-1.2c4.2,0.3,8.4,0.7,12.6,1c2.2,0.2,4.4,0.3,6.7,0.2
				c2.2-0.1,4.4-0.2,6.5-0.5c1.3-0.3,1.8,0.5,1.8,1.3c0,9.8,0,19.3,0,29.1c0.3,0,0.7,0.1,1,0.1c2.2-2.5,4.5-4.3,7.1-5.3
				c2.6-1,5.5-1.4,8.9-1c5.4,0.5,9.2,2.3,11.6,5.3c2.3,3,3.5,7.9,3.5,14.8c0,8.7,0,17.4,0,26.1c0,1.2,0.6,1.5,0.9,1.5
				c1.2,0.1,2.3,0.2,3.5,0.3c0.7,0.1,1.3,0.6,1.3,1.4c0,0.7-0.6,1.4-1.5,1.3c-9.7-0.9-19.3-1.9-29-2.8c-0.9-0.1-1.2-0.8-1.2-1.3
				c0-0.7,0.5-1.4,1.4-1.3c0.3,0,0.5,0.1,0.8,0.1c0.6,0,0.9-0.2,0.9-1.1c0-10.4,0-20.9,0-31.3c0-1.8-0.3-3.1-0.8-4
				c-0.5-0.9-1.3-1.4-2.5-1.5c-1.9-0.2-3.3,0.8-4.3,2.8c-1,2-1.5,5.1-1.5,9.1c0,8.1,0,16.2,0,24.3c0,0.8,0.5,1.1,0.8,1.1
				c0.4,0,0.8,0.1,1.1,0.1c0.6,0.1,1.1,0.5,1.1,1.4c0,0.6-0.6,1.3-1.5,1.2c-9.7-0.9-19.5-1.7-29.2-2.5
				C304.2,151.1,303.3,150.8,303.3,149.8z"/>
			<path class="st17" d="M435.2,142.4c-10.7-1-21.4-2.1-32.1-3.2c0,2,0,4,0,5.9c0,4.4,1,7.9,2.9,10.3c1.9,2.5,4.8,3.9,8.5,4.3
				c3.8,0.4,7.2-0.1,10.3-1.6c2.8-1.3,5.3-3.4,7.7-6.2c0.4-0.4,1.1-0.7,1.8-0.1c0.6,0.4,0.5,1.3,0.2,1.8c-2.4,3.5-5.7,6.1-9.8,7.7
				c-4.5,1.7-10,2.3-16.5,1.6c-9.1-0.9-16.4-4-21.9-9.3c-5.5-5.2-8.2-11.7-8.2-19.3c0-7.5,2.7-13.3,8.1-17.5
				c5.4-4.2,12.5-5.8,21.4-4.9c9.3,0.9,16.4,4.1,21.5,9.3c4.7,5,7.2,11.5,7.6,19.6C436.7,141.7,436.3,142.5,435.2,142.4z
				 M413.1,137.9c0-5.5,0-10.9,0-16.4c0-2.3-0.4-4-1.2-5.1c-0.8-1.1-2.1-1.8-3.8-2c-1.7-0.2-3,0.2-3.8,1.2c-0.8,1-1.2,2.6-1.2,4.8
				c0,5.5,0,10.9,0,16.4C406.4,137.2,409.8,137.5,413.1,137.9z"/>
			<path class="st17" d="M471.9,127.8c1.4-2.9,3.6-5.1,6.4-6.5c2.9-1.4,6.2-1.9,10-1.6c3.6,0.3,6.7,1.4,9.1,3.3
				c2.5,1.9,4,4.4,4.5,7.3c0.2,0,0.5,0,0.7,0.1c1.4-2.9,3.6-5.1,6.4-6.6c2.9-1.4,6.2-2,9.9-1.8c5.2,0.4,8.9,2,11.1,4.9
				c2.2,2.9,3.4,7.8,3.4,14.7c0,8.9,0,17.8,0,26.6c0,1,0.5,1,0.7,1c1.1,0.1,2.3,0.1,3.4,0.2c0.5,0,1.2,0.4,1.2,1.4
				c0,0.9-0.6,1.3-1.4,1.3c-9.2-0.5-18.4-1.2-27.6-1.9c-0.4,0-1.2-0.4-1.2-1.5c0-0.7,0.8-1.3,1.5-1.2c0.3,0,0.7,0,1,0.1
				c0.2,0,0.7,0.1,0.7-0.8c0-10.5,0-21.1,0-31.6c0-1.8-0.3-3.1-0.8-4c-0.5-0.9-1.3-1.3-2.4-1.4c-1.9-0.1-3.4,0.8-4.4,2.9
				c-1,2.1-1.5,5.1-1.5,9.1c0,8.2,0,16.3,0,24.5c0,0.8,0.4,0.8,0.7,0.8c0.4,0,0.8,0.1,1.2,0.1c0.4,0,1.3,0.4,1.3,1.4
				c0,0.8-0.7,1.3-1.5,1.3c-8.4-0.7-16.7-1.3-25.1-2.1c-0.4,0-1.3-0.4-1.3-1.4c0-0.7,0.7-1.3,1.5-1.3c0.3,0,0.7,0.1,1,0.1
				c0.2,0,0.6-0.1,0.6-0.8c0-10.5,0-21,0-31.6c0-1.8-0.3-3.1-0.8-4c-0.5-0.9-1.3-1.4-2.4-1.5c-1.9-0.2-3.4,0.8-4.3,2.8
				c-1,2-1.5,5-1.5,9.1c0,8.1,0,16.2,0,24.4c0,0.9,0.5,0.9,0.7,1c0.4,0,0.8,0.1,1.2,0.1c0.4,0,1.2,0.5,1.2,1.4
				c0,0.9-0.9,1.3-1.4,1.3c-9.3-0.8-18.7-1.7-28-2.6c-0.4,0-1.2-0.4-1.2-1.4c0-0.9,0.9-1.3,1.5-1.3c1.2,0.1,2.3,0.2,3.5,0.3
				c0.2,0,0.7-0.1,0.7-0.9c0-13.8,0-27.5,0-41.3c-1.5-0.1-3.1-0.3-4.6-0.4c-0.6-0.1-1.2-0.4-1.2-1.4c0-0.5,0.6-1.2,1.4-1.1
				c3.4,0.3,6.8,0.7,10.2,1c2.2,0.2,4.4,0.3,6.6,0.3c2.2,0,4.3-0.2,6.5-0.4c0.9-0.3,1.8,0,1.8,1.2c0,2.8-0.1,5.6-0.1,8.5
				C471.2,127.8,471.6,127.8,471.9,127.8z"/>
			<path class="st17" d="M574.8,174.8c-8.8-15.6-17.7-31.2-26.5-47c-1.4-0.1-2.7-0.1-4.1-0.2c-0.5,0-1.2-0.4-1.2-1.4
				c0-0.7,0.9-1.2,1.3-1.2c11.4,0.6,22.7,1.1,34.1,1.4c0.4,0,1.2,0.3,1.2,1.3c0,0.9-0.7,1.3-1.2,1.3c-1.5,0-3-0.1-4.5-0.1
				c4.7,7.9,9.4,15.8,14.1,23.6c3.2-5.5,6.4-11,9.6-16.5c0.4-0.7,0.7-1.3,0.9-1.8c0.2-0.5,0.2-0.9,0.2-1.3c0-1.2-0.4-2-1.3-2.6
				c-0.7-0.4-2-0.8-3.8-1c-0.4,0-1.2-0.4-1.2-1.3c0-1.1,0.9-1.3,1.3-1.3c5,0.1,9.9,0.1,14.9,0.1c0.4,0,1.4,0.3,1.4,1.3
				c0,1-1,1.3-1.2,1.3c-3.3,0.8-6.2,3.4-8.7,7.7c-0.2,0.3-0.3,0.5-0.3,0.6c-8.6,14.8-17.1,29.5-25.7,44.1c-3,5.2-6,8.8-8.7,10.8
				c-2.8,2-6,2.9-9.8,2.8c-3.6-0.2-6.5-1.3-8.7-3.4c-2.3-2.1-3.4-4.7-3.4-7.8c0-2.9,0.8-5,2.5-6.5c1.6-1.5,3.9-2.2,6.9-2
				c2.6,0.1,4.6,0.9,6.1,2.4c1.5,1.5,2.3,3.4,2.3,5.7c0,1.7-0.7,3.2-2,4.5c-1.3,1.3-2,2.1-2,2.4c0,0.4,0.2,0.8,0.5,1
				c0.3,0.2,0.8,0.4,1.3,0.4c1.6,0.1,3.6-0.9,5.9-3c2.3-2.1,4.5-4.8,6.5-8.3C572.5,178.9,573.6,176.9,574.8,174.8z"/>
			<path class="st17" d="M188.7,151.1c-12.1,0-21.6-18.8-21.7-19c0,0,0-0.1,0-0.1L123,56.5c-0.3-0.5-0.8-0.8-1.3-0.8h0
				c-0.5,0-1,0.3-1.3,0.7l-42.2,72.1l0,0l-7.5,12.7c0,0,0,0.1-0.1,0.1c0,0-0.1,0.2-0.3,0.5c-3.1,4.4-9.6,6.5-15.6,4.9
				c-7.3-2-11.4-8.7-11.4-18.4c0-6.9,2.8-13.1,8.3-18.3c4.2-4,8.5-5.9,8.5-5.9c0.6-0.3,1-1,0.9-1.6c-0.1-0.7-0.7-1.2-1.4-1.3
				c-0.7-0.1-17.6-1.2-28.3,8.6c-5.5,5.1-8.3,12.1-8.3,21c0,7.9,2.7,14.5,7.9,19.1c4.9,4.4,11.7,6.8,19.6,6.8
				c6.5,0,12.5-2.4,17.3-7.1c2.7-2.5,4.3-5.1,5-6.3c0.1-0.2,0.3-0.4,0.4-0.6l12.5-21.3h36.1l4.9,8.3l2.1,3.6
				c1.6,3.5,1.6,10.4-0.9,14.4c-1.4,2.2-3.3,3.3-5.7,3.3c-0.8,0-1.5,0.7-1.5,1.5s0.7,1.5,1.5,1.5c16.9,0,25.2-4.6,27.9-6.6
				c2.9,2.1,12.2,6.6,38.5,6.6c0.8,0,1.5-0.7,1.5-1.5S189.5,151.1,188.7,151.1z M103.9,90.7l16.2,27.8H87.6L103.9,90.7z"/>
		</g>
	</g>
	<radialGradient id="SVGID_2_" cx="117.1633" cy="120" r="109.2838" gradientUnits="userSpaceOnUse">
		<stop  offset="0.4141" style="stop-color:#FFFFFF;stop-opacity:0.3"/>
		<stop  offset="1" style="stop-color:#FFFFFF;stop-opacity:0.8"/>
	</radialGradient>
	<path style="fill:url(#SVGID_2_);" d="M103.5,31.9c-0.1,0-0.2,0-0.3,0c-0.1,0-0.2,0-0.3-0.1c-0.1,0-0.2-0.1-0.3-0.1
		c-0.1-0.1-0.2-0.1-0.2-0.2c-0.1-0.1-0.1-0.1-0.2-0.2c-0.1-0.1-0.1-0.2-0.1-0.3c0-0.1-0.1-0.2-0.1-0.3c0-0.1,0-0.2,0-0.3
		c0-0.1,0-0.2,0-0.3c0-0.1,0-0.2,0.1-0.3c0-0.1,0.1-0.2,0.1-0.3c0.1-0.1,0.1-0.2,0.2-0.2c0.1-0.1,0.1-0.1,0.2-0.2
		c0.1-0.1,0.2-0.1,0.3-0.1c0.1,0,0.2-0.1,0.3-0.1c0.2,0,0.4,0,0.6,0c0.1,0,0.2,0,0.3,0.1c0.1,0,0.2,0.1,0.3,0.1
		c0.1,0.1,0.2,0.1,0.2,0.2c0.1,0.1,0.1,0.1,0.2,0.2c0.1,0.1,0.1,0.2,0.1,0.3c0,0.1,0.1,0.2,0.1,0.3c0,0.1,0,0.2,0,0.3
		c0,0.1,0,0.2,0,0.3c0,0.1,0,0.2-0.1,0.3c0,0.1-0.1,0.2-0.1,0.3c-0.1,0.1-0.1,0.2-0.2,0.2c-0.1,0.1-0.1,0.1-0.2,0.2
		c-0.1,0.1-0.2,0.1-0.3,0.1c-0.1,0-0.2,0.1-0.3,0.1C103.7,31.9,103.6,31.9,103.5,31.9z M109.7,61.4c0.8-0.2,1.3-1,1.2-1.8L108,45.2
		c-0.2-0.8-1-1.3-1.8-1.2c-0.8,0.2-1.3,1-1.2,1.8l2.9,14.4c0.1,0.7,0.8,1.2,1.5,1.2C109.5,61.4,109.6,61.4,109.7,61.4z M136.4,196
		c0.8-0.2,1.3-1,1.2-1.8l-6-30.2c-0.2-0.8-1-1.3-1.8-1.2c-0.8,0.2-1.3,1-1.2,1.8l6,30.2c0.1,0.7,0.8,1.2,1.5,1.2
		C136.2,196,136.3,196,136.4,196z M139.4,211.1c0.1,0,0.2,0,0.3-0.1c0.1,0,0.2-0.1,0.3-0.1c0.1-0.1,0.2-0.1,0.2-0.2
		c0.3-0.3,0.4-0.7,0.4-1.1c0-0.4-0.2-0.8-0.4-1.1c-0.1-0.1-0.1-0.1-0.2-0.2c-0.1-0.1-0.2-0.1-0.3-0.1c-0.1,0-0.2-0.1-0.3-0.1
		c-0.5-0.1-1,0.1-1.4,0.4c-0.1,0.1-0.1,0.1-0.2,0.2c-0.1,0.1-0.1,0.2-0.1,0.3c0,0.1-0.1,0.2-0.1,0.3c0,0.1,0,0.2,0,0.3
		c0,0.1,0,0.2,0,0.3c0,0.1,0,0.2,0.1,0.3c0,0.1,0.1,0.2,0.1,0.3c0.1,0.1,0.1,0.2,0.2,0.2c0.1,0.1,0.1,0.1,0.2,0.2
		c0.1,0.1,0.2,0.1,0.3,0.1c0.1,0,0.2,0.1,0.3,0.1c0.1,0,0.2,0,0.3,0C139.2,211.1,139.3,211.1,139.4,211.1z M164.4,113l32.4-6.4
		c0.8-0.2,1.3-1,1.2-1.8c-0.2-0.8-1-1.3-1.8-1.2l-32.4,6.4c-0.8,0.2-1.3,1-1.2,1.8c0.1,0.7,0.8,1.2,1.5,1.2
		C164.2,113,164.3,113,164.4,113z M172.4,45.5c0.1,0,0.2,0,0.3-0.1c0.1,0,0.2-0.1,0.3-0.1c0.1-0.1,0.2-0.1,0.2-0.2
		c0.3-0.3,0.4-0.7,0.4-1.1c0-0.4-0.2-0.8-0.4-1.1c-0.1-0.1-0.1-0.1-0.2-0.2c-0.1-0.1-0.2-0.1-0.3-0.1c-0.1,0-0.2-0.1-0.3-0.1
		c-0.2,0-0.4,0-0.6,0c-0.1,0-0.2,0-0.3,0.1c-0.1,0-0.2,0.1-0.3,0.1c-0.1,0.1-0.2,0.1-0.2,0.2c-0.3,0.3-0.4,0.7-0.4,1.1
		c0,0.1,0,0.2,0,0.3c0,0.1,0,0.2,0.1,0.3c0,0.1,0.1,0.2,0.1,0.3c0.1,0.1,0.1,0.2,0.2,0.2c0.1,0.1,0.1,0.1,0.2,0.2
		c0.1,0.1,0.2,0.1,0.3,0.1c0.1,0,0.2,0.1,0.3,0.1c0.1,0,0.2,0,0.3,0C172.2,45.6,172.3,45.5,172.4,45.5z M148.1,82.7l16.7-25
		c0.5-0.7,0.3-1.6-0.4-2.1c-0.7-0.5-1.6-0.3-2.1,0.4l-16.7,25c-0.5,0.7-0.3,1.6,0.4,2.1c0.3,0.2,0.5,0.3,0.8,0.3
		C147.3,83.4,147.8,83.1,148.1,82.7z M80.4,184l17.1-25.6c0.5-0.7,0.3-1.6-0.4-2.1c-0.7-0.5-1.6-0.3-2.1,0.4l-17.1,25.6
		c-0.5,0.7-0.3,1.6,0.4,2.1c0.3,0.2,0.5,0.3,0.8,0.3C79.6,184.7,80.1,184.4,80.4,184z M70.9,197.4c0.1,0,0.2,0,0.3-0.1
		c0.1,0,0.2-0.1,0.3-0.1c0.1-0.1,0.2-0.1,0.2-0.2c0.3-0.3,0.4-0.7,0.4-1.1c0-0.1,0-0.2,0-0.3c0-0.1,0-0.2-0.1-0.3
		c0-0.1-0.1-0.2-0.1-0.3c-0.1-0.1-0.1-0.2-0.2-0.2c-0.3-0.3-0.7-0.4-1.1-0.4c-0.4,0-0.8,0.2-1.1,0.4c-0.1,0.1-0.1,0.1-0.2,0.2
		c-0.1,0.1-0.1,0.2-0.1,0.3c0,0.1-0.1,0.2-0.1,0.3c0,0.1,0,0.2,0,0.3c0,0.4,0.2,0.8,0.4,1.1c0.3,0.3,0.7,0.4,1.1,0.4
		C70.7,197.5,70.8,197.5,70.9,197.4z M185.7,163c0.5-0.7,0.3-1.6-0.4-2.1l-5.6-3.7c-0.7-0.5-1.6-0.3-2.1,0.4
		c-0.5,0.7-0.3,1.6,0.4,2.1l5.6,3.7c0.3,0.2,0.5,0.3,0.8,0.3C185,163.7,185.4,163.5,185.7,163z M198.3,171.8
		c0.3-0.3,0.4-0.7,0.4-1.1c0-0.1,0-0.2,0-0.3c0-0.1,0-0.2-0.1-0.3c0-0.1-0.1-0.2-0.1-0.3c-0.1-0.1-0.1-0.2-0.2-0.2
		c-0.3-0.3-0.9-0.5-1.4-0.4c-0.1,0-0.2,0-0.3,0.1c-0.1,0-0.2,0.1-0.3,0.1c-0.1,0.1-0.2,0.1-0.2,0.2c-0.1,0.1-0.1,0.1-0.2,0.2
		c-0.1,0.1-0.1,0.2-0.1,0.3c0,0.1-0.1,0.2-0.1,0.3c0,0.1,0,0.2,0,0.3c0,0.4,0.2,0.8,0.4,1.1c0.1,0.1,0.1,0.1,0.2,0.2
		c0.1,0.1,0.2,0.1,0.3,0.1c0.1,0,0.2,0.1,0.3,0.1c0.1,0,0.2,0,0.3,0C197.7,172.3,198.1,172.1,198.3,171.8z M45.7,70.7
		c0.1,0,0.2,0,0.3-0.1c0.1,0,0.2-0.1,0.3-0.1c0.1-0.1,0.2-0.1,0.2-0.2c0.1-0.1,0.1-0.1,0.2-0.2c0.1-0.1,0.1-0.2,0.1-0.3
		c0-0.1,0.1-0.2,0.1-0.3c0-0.1,0-0.2,0-0.3c0-0.1,0-0.2,0-0.3c0-0.1,0-0.2-0.1-0.3c0-0.1-0.1-0.2-0.1-0.3c-0.1-0.1-0.1-0.2-0.2-0.2
		c-0.1-0.1-0.1-0.1-0.2-0.2c-0.1-0.1-0.2-0.1-0.3-0.1c-0.1,0-0.2-0.1-0.3-0.1c-0.2,0-0.4,0-0.6,0c-0.1,0-0.2,0-0.3,0.1
		c-0.1,0-0.2,0.1-0.3,0.1c-0.1,0.1-0.2,0.1-0.2,0.2c-0.1,0.1-0.1,0.1-0.2,0.2c-0.1,0.1-0.1,0.2-0.1,0.3c0,0.1-0.1,0.2-0.1,0.3
		c0,0.1,0,0.2,0,0.3c0,0.4,0.2,0.8,0.4,1.1c0.1,0.1,0.1,0.1,0.2,0.2c0.1,0.1,0.2,0.1,0.3,0.1c0.1,0,0.2,0.1,0.3,0.1
		c0.1,0,0.2,0,0.3,0C45.5,70.8,45.6,70.7,45.7,70.7z M88.7,98.2c0.5-0.7,0.3-1.6-0.4-2.1L59,76.5c-0.7-0.5-1.6-0.3-2.1,0.4
		c-0.5,0.7-0.3,1.6,0.4,2.1l29.3,19.5c0.3,0.2,0.5,0.3,0.8,0.3C87.9,98.9,88.4,98.6,88.7,98.2z M70.9,45.5c0.1,0,0.2,0,0.3-0.1
		c0.1,0,0.2-0.1,0.3-0.1c0.1-0.1,0.2-0.1,0.2-0.2c0.1-0.1,0.1-0.1,0.2-0.2c0.1-0.1,0.1-0.2,0.1-0.3c0-0.1,0.1-0.2,0.1-0.3
		c0-0.1,0-0.2,0-0.3c0-0.1,0-0.2,0-0.3c0-0.1,0-0.2-0.1-0.3c0-0.1-0.1-0.2-0.1-0.3c-0.1-0.1-0.1-0.2-0.2-0.2s-0.1-0.1-0.2-0.2
		c-0.1-0.1-0.2-0.1-0.3-0.1c-0.1,0-0.2-0.1-0.3-0.1c-0.2,0-0.4,0-0.6,0c-0.1,0-0.2,0-0.3,0.1c-0.1,0-0.2,0.1-0.3,0.1
		c-0.1,0.1-0.2,0.1-0.2,0.2c-0.1,0.1-0.1,0.1-0.2,0.2c-0.1,0.1-0.1,0.2-0.1,0.3c0,0.1-0.1,0.2-0.1,0.3c0,0.1,0,0.2,0,0.3
		c0,0.4,0.2,0.8,0.4,1.1c0.1,0.1,0.1,0.1,0.2,0.2c0.1,0.1,0.2,0.1,0.3,0.1c0.1,0,0.2,0.1,0.3,0.1c0.1,0,0.2,0,0.3,0
		C70.7,45.6,70.8,45.5,70.9,45.5z M97,83.6c0.7-0.5,0.9-1.4,0.4-2.1L80.4,56c-0.5-0.7-1.4-0.9-2.1-0.4c-0.7,0.5-0.9,1.4-0.4,2.1
		l17.1,25.5c0.3,0.4,0.8,0.7,1.3,0.7C96.5,83.9,96.8,83.8,97,83.6z M164.4,184.4c0.7-0.5,0.9-1.4,0.4-2.1l-17.1-25.6
		c-0.5-0.7-1.4-0.9-2.1-0.4c-0.7,0.5-0.9,1.4-0.4,2.1l17.1,25.6c0.3,0.4,0.8,0.7,1.3,0.7C163.8,184.7,164.1,184.6,164.4,184.4z
		 M172.4,197.4c0.1,0,0.2,0,0.3-0.1c0.1,0,0.2-0.1,0.3-0.1c0.1-0.1,0.2-0.1,0.2-0.2c0.3-0.3,0.4-0.7,0.4-1.1c0-0.1,0-0.2,0-0.3
		c0-0.1,0-0.2-0.1-0.3c0-0.1-0.1-0.2-0.1-0.3c-0.1-0.1-0.1-0.2-0.2-0.2c-0.3-0.3-0.7-0.4-1.1-0.4s-0.8,0.2-1.1,0.4
		c-0.1,0.1-0.1,0.1-0.2,0.2c-0.1,0.1-0.1,0.2-0.1,0.3c0,0.1-0.1,0.2-0.1,0.3c0,0.1,0,0.2,0,0.3c0,0.1,0,0.2,0,0.3
		c0,0.1,0,0.2,0.1,0.3c0,0.1,0.1,0.2,0.1,0.3c0.1,0.1,0.1,0.2,0.2,0.2c0.1,0.1,0.1,0.1,0.2,0.2c0.1,0.1,0.2,0.1,0.3,0.1
		c0.1,0,0.2,0.1,0.3,0.1c0.1,0,0.2,0,0.3,0C172.2,197.5,172.3,197.5,172.4,197.4z M156.5,98.3l28.8-19.3c0.7-0.5,0.9-1.4,0.4-2.1
		c-0.5-0.7-1.4-0.9-2.1-0.4l-28.8,19.3c-0.7,0.5-0.9,1.4-0.4,2.1c0.3,0.4,0.8,0.7,1.3,0.7C156,98.6,156.2,98.5,156.5,98.3z
		 M197.6,70.7c0.1,0,0.2,0,0.3-0.1c0.1,0,0.2-0.1,0.3-0.1c0.1-0.1,0.2-0.1,0.2-0.2c0.3-0.3,0.4-0.7,0.4-1.1c0-0.1,0-0.2,0-0.3
		c0-0.1,0-0.2-0.1-0.3c0-0.1-0.1-0.2-0.1-0.3c-0.1-0.1-0.1-0.2-0.2-0.2c-0.1-0.1-0.1-0.1-0.2-0.2c-0.1-0.1-0.2-0.1-0.3-0.1
		c-0.1,0-0.2-0.1-0.3-0.1c-0.2,0-0.4,0-0.6,0c-0.1,0-0.2,0-0.3,0.1c-0.1,0-0.2,0.1-0.3,0.1c-0.1,0.1-0.2,0.1-0.2,0.2
		c-0.1,0.1-0.1,0.1-0.2,0.2c-0.1,0.1-0.1,0.2-0.1,0.3c0,0.1-0.1,0.2-0.1,0.3c0,0.1,0,0.2,0,0.3c0,0.4,0.2,0.8,0.4,1.1
		c0.1,0.1,0.1,0.1,0.2,0.2c0.1,0.1,0.2,0.1,0.3,0.1c0.1,0,0.2,0.1,0.3,0.1c0.1,0,0.2,0,0.3,0C197.4,70.8,197.5,70.7,197.6,70.7z
		 M45.7,172.2c0.1,0,0.2,0,0.3-0.1c0.1,0,0.2-0.1,0.3-0.1c0.1-0.1,0.2-0.1,0.2-0.2c0.1-0.1,0.1-0.1,0.2-0.2c0.1-0.1,0.1-0.2,0.1-0.3
		c0-0.1,0.1-0.2,0.1-0.3c0-0.1,0-0.2,0-0.3c0-0.4-0.2-0.8-0.4-1.1c-0.1-0.1-0.1-0.1-0.2-0.2c-0.1-0.1-0.2-0.1-0.3-0.1
		c-0.1,0-0.2-0.1-0.3-0.1c-0.5-0.1-1,0.1-1.4,0.4c-0.1,0.1-0.1,0.1-0.2,0.2c-0.1,0.1-0.1,0.2-0.1,0.3c0,0.1-0.1,0.2-0.1,0.3
		c0,0.1,0,0.2,0,0.3c0,0.1,0,0.2,0,0.3c0,0.1,0,0.2,0.1,0.3c0,0.1,0.1,0.2,0.1,0.3c0.1,0.1,0.1,0.2,0.2,0.2c0.3,0.3,0.7,0.4,1.1,0.4
		C45.5,172.3,45.6,172.3,45.7,172.2z M59.2,163.3l25.3-16.9c0.7-0.5,0.9-1.4,0.4-2.1c-0.5-0.7-1.4-0.9-2.1-0.4l-25.3,16.9
		c-0.7,0.5-0.9,1.4-0.4,2.1c0.3,0.4,0.8,0.7,1.3,0.7C58.7,163.5,59,163.5,59.2,163.3z M139.4,31.9c0.1,0,0.2,0,0.3-0.1
		c0.1,0,0.2-0.1,0.3-0.1c0.1-0.1,0.2-0.1,0.2-0.2s0.1-0.1,0.2-0.2c0.1-0.1,0.1-0.2,0.1-0.3c0-0.1,0.1-0.2,0.1-0.3c0-0.1,0-0.2,0-0.3
		c0-0.1,0-0.2,0-0.3c0-0.1,0-0.2-0.1-0.3c0-0.1-0.1-0.2-0.1-0.3c-0.1-0.1-0.1-0.2-0.2-0.2c-0.1-0.1-0.1-0.1-0.2-0.2
		c-0.1-0.1-0.2-0.1-0.3-0.1c-0.1,0-0.2-0.1-0.3-0.1c-0.2,0-0.4,0-0.6,0c-0.1,0-0.2,0-0.3,0.1c-0.1,0-0.2,0.1-0.3,0.1
		c-0.1,0.1-0.2,0.1-0.2,0.2c-0.1,0.1-0.1,0.1-0.2,0.2c-0.1,0.1-0.1,0.2-0.1,0.3c0,0.1-0.1,0.2-0.1,0.3c0,0.1,0,0.2,0,0.3
		c0,0.1,0,0.2,0,0.3c0,0.1,0,0.2,0.1,0.3c0,0.1,0.1,0.2,0.1,0.3c0.1,0.1,0.1,0.2,0.2,0.2c0.3,0.3,0.7,0.4,1.1,0.4
		C139.2,31.9,139.3,31.9,139.4,31.9z M135,59.2l2.7-13.4c0.2-0.8-0.4-1.6-1.2-1.8c-0.8-0.2-1.6,0.4-1.8,1.2L132,58.6
		c-0.2,0.8,0.4,1.6,1.2,1.8c0.1,0,0.2,0,0.3,0C134.2,60.4,134.8,59.9,135,59.2z M108,194.8l6-30.2c0.2-0.8-0.4-1.6-1.2-1.8
		c-0.8-0.2-1.6,0.4-1.8,1.2l-6,30.2c-0.2,0.8,0.4,1.6,1.2,1.8c0.1,0,0.2,0,0.3,0C107.2,196,107.8,195.5,108,194.8z M103.8,211.1
		c0.1,0,0.2,0,0.3-0.1c0.1,0,0.2-0.1,0.3-0.1c0.1-0.1,0.2-0.1,0.2-0.2c0.1-0.1,0.1-0.1,0.2-0.2c0.1-0.1,0.1-0.2,0.1-0.3
		c0-0.1,0.1-0.2,0.1-0.3c0-0.1,0-0.2,0-0.3c0-0.1,0-0.2,0-0.3c0-0.1,0-0.2-0.1-0.3c0-0.1-0.1-0.2-0.1-0.3c-0.1-0.1-0.1-0.2-0.2-0.2
		c-0.1-0.1-0.1-0.1-0.2-0.2c-0.1-0.1-0.2-0.1-0.3-0.1c-0.1,0-0.2-0.1-0.3-0.1c-0.2,0-0.4,0-0.6,0c-0.1,0-0.2,0-0.3,0.1
		c-0.1,0-0.2,0.1-0.3,0.1c-0.1,0.1-0.2,0.1-0.2,0.2c-0.3,0.3-0.4,0.7-0.4,1.1c0,0.4,0.2,0.8,0.4,1.1c0.1,0.1,0.1,0.1,0.2,0.2
		c0.1,0.1,0.2,0.1,0.3,0.1c0.1,0,0.2,0.1,0.3,0.1c0.1,0,0.2,0,0.3,0C103.6,211.1,103.7,211.1,103.8,211.1z M197.3,135.1
		c0.2-0.8-0.4-1.6-1.2-1.8l-20.7-4.1c-0.8-0.2-1.6,0.4-1.8,1.2c-0.2,0.8,0.4,1.6,1.2,1.8l20.7,4.1c0.1,0,0.2,0,0.3,0
		C196.5,136.3,197.2,135.8,197.3,135.1z M50.5,135.7l17.7-3.5c0.8-0.2,1.3-1,1.2-1.8c-0.2-0.8-1-1.3-1.8-1.2l-17.7,3.5
		c-0.8,0.2-1.3,1-1.2,1.8c0.1,0.7,0.8,1.2,1.5,1.2C50.3,135.7,50.4,135.7,50.5,135.7z M32,103.7c0.1,0,0.2,0,0.3-0.1
		c0.1,0,0.2-0.1,0.3-0.1c0.1-0.1,0.2-0.1,0.2-0.2c0.1-0.1,0.1-0.1,0.2-0.2c0.1-0.1,0.1-0.2,0.1-0.3c0-0.1,0.1-0.2,0.1-0.3
		c0-0.1,0-0.2,0-0.3c0-0.4-0.2-0.8-0.4-1.1c-0.3-0.3-0.7-0.4-1.1-0.4c-0.4,0-0.8,0.2-1.1,0.4c-0.3,0.3-0.4,0.7-0.4,1.1
		c0,0.1,0,0.2,0,0.3c0,0.1,0,0.2,0.1,0.3c0,0.1,0.1,0.2,0.1,0.3c0.1,0.1,0.1,0.2,0.2,0.2s0.1,0.1,0.2,0.2c0.1,0.1,0.2,0.1,0.3,0.1
		c0.1,0,0.2,0.1,0.3,0.1c0.1,0,0.2,0,0.3,0C31.8,103.7,31.9,103.7,32,103.7z M80.5,111.9c0.2-0.8-0.4-1.6-1.2-1.8L63.5,107
		c-0.8-0.2-1.6,0.4-1.8,1.2c-0.2,0.8,0.4,1.6,1.2,1.8l15.9,3.2c0.1,0,0.2,0,0.3,0C79.8,113.1,80.4,112.6,80.5,111.9z M122.8,45.9
		V10.1c0-0.8-0.7-1.5-1.5-1.5s-1.5,0.7-1.5,1.5v35.8c0,0.8,0.7,1.5,1.5,1.5S122.8,46.7,122.8,45.9z M122.8,229.9v-64.7
		c0-0.8-0.7-1.5-1.5-1.5s-1.5,0.7-1.5,1.5v64.7c0,0.8,0.7,1.5,1.5,1.5S122.8,230.7,122.8,229.9z M197.9,120c0-0.8-0.7-1.5-1.5-1.5
		H169c-0.8,0-1.5,0.7-1.5,1.5s0.7,1.5,1.5,1.5h27.4C197.2,121.5,197.9,120.8,197.9,120z M152.5,90.9l47.5-47.5
		c0.6-0.6,0.6-1.5,0-2.1c-0.6-0.6-1.5-0.6-2.1,0l-47.5,47.5c-0.6,0.6-0.6,1.5,0,2.1c0.3,0.3,0.7,0.4,1.1,0.4S152.2,91.2,152.5,90.9z
		 M44.7,198.7L90.4,153c0.6-0.6,0.6-1.5,0-2.1c-0.6-0.6-1.5-0.6-2.1,0l-45.7,45.7c-0.6,0.6-0.6,1.5,0,2.1c0.3,0.3,0.7,0.4,1.1,0.4
		C44,199.2,44.4,199,44.7,198.7z M200.1,198.7c0.6-0.6,0.6-1.5,0-2.1l-41.3-41.3c-0.6-0.6-1.5-0.6-2.1,0c-0.6,0.6-0.6,1.5,0,2.1
		l41.3,41.3c0.3,0.3,0.7,0.4,1.1,0.4S199.8,199,200.1,198.7z M92.6,91.3c0.6-0.6,0.6-1.5,0-2.1L44.7,41.3c-0.6-0.6-1.5-0.6-2.1,0
		c-0.6,0.6-0.6,1.5,0,2.1l47.9,47.9c0.3,0.3,0.7,0.4,1.1,0.4S92.3,91.6,92.6,91.3z M102.4,74.2c0.8-0.3,1.1-1.2,0.8-2L80.7,17.9
		c-0.3-0.8-1.2-1.1-2-0.8c-0.8,0.3-1.1,1.2-0.8,2l22.5,54.3c0.2,0.6,0.8,0.9,1.4,0.9C102,74.3,102.2,74.3,102.4,74.2z M163.9,222.9
		c0.8-0.3,1.1-1.2,0.8-2L140,161.2c-0.3-0.8-1.2-1.1-2-0.8c-0.8,0.3-1.1,1.2-0.8,2l24.7,59.7c0.2,0.6,0.8,0.9,1.4,0.9
		C163.6,223,163.8,223,163.9,222.9z M160.3,105.5L197,90.3c0.8-0.3,1.1-1.2,0.8-2c-0.3-0.8-1.2-1.1-2-0.8l-36.7,15.2
		c-0.8,0.3-1.1,1.2-0.8,2c0.2,0.6,0.8,0.9,1.4,0.9C159.9,105.6,160.1,105.6,160.3,105.5z M20.4,163.4l10.7-4.5
		c0.8-0.3,1.1-1.2,0.8-2c-0.3-0.8-1.2-1.1-2-0.8l-10.7,4.5c-0.8,0.3-1.1,1.2-0.8,2c0.2,0.6,0.8,0.9,1.4,0.9
		C20,163.5,20.2,163.5,20.4,163.4z M142.6,72.7l22.2-53.6c0.3-0.8,0-1.7-0.8-2c-0.8-0.3-1.7,0-2,0.8l-22.2,53.6
		c-0.3,0.8,0,1.7,0.8,2c0.2,0.1,0.4,0.1,0.6,0.1C141.8,73.6,142.3,73.3,142.6,72.7z M80.7,222.1l24.7-59.7c0.3-0.8,0-1.7-0.8-2
		c-0.8-0.3-1.7,0-2,0.8l-24.7,59.7c-0.3,0.8,0,1.7,0.8,2c0.2,0.1,0.4,0.1,0.6,0.1C79.9,223,80.4,222.7,80.7,222.1z M224.2,162.6
		c0.3-0.8,0-1.7-0.8-2l-22.7-9.4c-0.8-0.3-1.7,0-2,0.8c-0.3,0.8,0,1.7,0.8,2l22.7,9.4c0.2,0.1,0.4,0.1,0.6,0.1
		C223.4,163.5,224,163.2,224.2,162.6z M77.5,101.8c0.3-0.8,0-1.7-0.8-2L20.4,76.6c-0.8-0.3-1.7,0-2,0.8c-0.3,0.8,0,1.7,0.8,2
		l56.3,23.3c0.2,0.1,0.4,0.1,0.6,0.1C76.7,102.8,77.3,102.4,77.5,101.8z M84.7,104.8c0.3-0.8,0-1.7-0.8-2l-7.3-3
		c-0.8-0.3-1.7,0-2,0.8c-0.3,0.8,0,1.7,0.8,2l7.3,3c0.2,0.1,0.4,0.1,0.6,0.1C83.9,105.8,84.5,105.4,84.7,104.8z M75.6,120
		c0-0.8-0.7-1.5-1.5-1.5h-21c-0.8,0-1.5,0.7-1.5,1.5s0.7,1.5,1.5,1.5h21C75,121.5,75.6,120.8,75.6,120z M18.3,120
		c0-0.8-0.7-1.5-1.5-1.5h-5.3c-0.8,0-1.5,0.7-1.5,1.5s0.7,1.5,1.5,1.5h5.3C17.7,121.5,18.3,120.8,18.3,120z"/>
</g>
</svg>
